<svg width="12" height="12" viewBox="0 0 12 12" fill="none" xmlns="http://www.w3.org/2000/svg">
<path fill-rule="evenodd" clip-rule="evenodd" d="M8.45977 11.6888H2.81992C1.37048 11.6888 0 10.3064 0 8.84437V3.15548C0 1.69344 1.37048 0.311035 2.81992 0.311035H8.45977C9.90921 0.311035 11.2797 1.69344 11.2797 3.15548V8.84437C11.2797 10.3064 9.90921 11.6888 8.45977 11.6888ZM2.81992 1.73326C2.16077 1.73326 1.40996 2.49059 1.40996 3.15548V8.84437C1.40996 9.52206 2.14808 10.2666 2.81992 10.2666H8.45977C9.11893 10.2666 9.86973 9.50926 9.86973 8.84437V3.15548C9.86973 2.49059 9.11893 1.73326 8.45977 1.73326H2.81992Z" fill="#ADADAD"/>
</svg>
