<svg width="12" height="9" viewBox="0 0 12 9" fill="none" xmlns="http://www.w3.org/2000/svg">
<path fill-rule="evenodd" clip-rule="evenodd" d="M11.1387 2.30215C10.9977 1.3777 10.5747 0.737702 9.58774 0.59548C8.03678 0.311035 5.63985 0.311035 5.63985 0.311035C5.63985 0.311035 3.24291 0.311035 1.69195 0.59548C0.704981 0.737702 0.211494 1.3777 0.140996 2.30215C0 3.22659 0 4.5777 0 4.5777C0 4.5777 0 5.92881 0.140996 6.85326C0.281992 7.7777 0.704981 8.4177 1.69195 8.55992C3.24291 8.84437 5.63985 8.84437 5.63985 8.84437C5.63985 8.84437 8.03678 8.84437 9.58774 8.55992C10.5747 8.34659 10.9977 7.7777 11.1387 6.85326C11.2797 5.92881 11.2797 4.5777 11.2797 4.5777C11.2797 4.5777 11.2797 3.22659 11.1387 2.30215ZM4.22989 6.71104V2.44437L7.75479 4.5777L4.22989 6.71104Z" fill="#ADADAD"/>
</svg>
